<svg width="60" height="60" viewBox="0 0 60 60" fill="none" xmlns="http://www.w3.org/2000/svg">
<g clip-path="url(#clip0_3_6)">
<rect width="60" height="60" rx="30" fill="black"/>
<path d="M50.8421 17.25H48.6842V15.1667C48.6842 14.6141 48.4569 14.0842 48.0522 13.6935C47.6475 13.3028 47.0986 13.0833 46.5263 13.0833C45.954 13.0833 45.4051 13.3028 45.0004 13.6935C44.5958 14.0842 44.3684 14.6141 44.3684 15.1667V17.25H42.2105C41.6382 17.25 41.0893 17.4695 40.6847 17.8602C40.28 18.2509 40.0526 18.7808 40.0526 19.3333C40.0526 19.8859 40.28 20.4158 40.6847 20.8065C41.0893 21.1972 41.6382 21.4167 42.2105 21.4167H44.3684V23.5C44.3684 24.0525 44.5958 24.5824 45.0004 24.9731C45.4051 25.3638 45.954 25.5833 46.5263 25.5833C47.0986 25.5833 47.6475 25.3638 48.0522 24.9731C48.4569 24.5824 48.6842 24.0525 48.6842 23.5V21.4167H50.8421C51.4144 21.4167 51.9633 21.1972 52.368 20.8065C52.7726 20.4158 53 19.8859 53 19.3333C53 18.7808 52.7726 18.2509 52.368 17.8602C51.9633 17.4695 51.4144 17.25 50.8421 17.25Z" fill="white"/>
<path d="M27.1053 27.6667C28.8124 27.6667 30.4812 27.1779 31.9007 26.2622C33.3202 25.3466 34.4265 24.0451 35.0798 22.5224C35.7331 20.9996 35.904 19.3241 35.571 17.7076C35.2379 16.0911 34.4159 14.6062 33.2087 13.4408C32.0016 12.2753 30.4636 11.4817 28.7892 11.1601C27.1148 10.8386 25.3793 11.0036 23.8021 11.6343C22.2249 12.2651 20.8768 13.3332 19.9284 14.7036C18.9799 16.074 18.4737 17.6852 18.4737 19.3333C18.4737 21.5435 19.3831 23.6631 21.0018 25.2259C22.6205 26.7887 24.816 27.6667 27.1053 27.6667Z" fill="white"/>
<path d="M40.0526 48.5C40.6249 48.5 41.1738 48.2805 41.5785 47.8898C41.9832 47.4991 42.2105 46.9692 42.2105 46.4167C42.2105 42.5489 40.6191 38.8396 37.7863 36.1047C34.9535 33.3698 31.1114 31.8333 27.1053 31.8333C23.0991 31.8333 19.257 33.3698 16.4242 36.1047C13.5914 38.8396 12 42.5489 12 46.4167C12 46.9692 12.2273 47.4991 12.632 47.8898C13.0367 48.2805 13.5856 48.5 14.1579 48.5" fill="white"/>
</g>
<defs>
<clipPath id="clip0_3_6">
<rect width="60" height="60" rx="30" fill="white"/>
</clipPath>
</defs>
</svg>
