<svg width="60" height="60" viewBox="0 0 60 60" fill="none" xmlns="http://www.w3.org/2000/svg">
<g clip-path="url(#clip0_2_2)">
<path d="M55 0H5C3.67392 0 2.40215 0.526784 1.46447 1.46447C0.526784 2.40215 0 3.67392 0 5V55C0 56.3261 0.526784 57.5979 1.46447 58.5355C2.40215 59.4732 3.67392 60 5 60H55C56.3261 60 57.5979 59.4732 58.5355 58.5355C59.4732 57.5979 60 56.3261 60 55V5C60 3.67392 59.4732 2.40215 58.5355 1.46447C57.5979 0.526784 56.3261 0 55 0ZM47.5 32.5H32.5V47.5C32.5 48.163 32.2366 48.7989 31.7678 49.2678C31.2989 49.7366 30.663 50 30 50C29.337 50 28.7011 49.7366 28.2322 49.2678C27.7634 48.7989 27.5 48.163 27.5 47.5V32.5H12.5C11.837 32.5 11.2011 32.2366 10.7322 31.7678C10.2634 31.2989 10 30.663 10 30C10 29.337 10.2634 28.7011 10.7322 28.2322C11.2011 27.7634 11.837 27.5 12.5 27.5H27.5V12.5C27.5 11.837 27.7634 11.2011 28.2322 10.7322C28.7011 10.2634 29.337 10 30 10C30.663 10 31.2989 10.2634 31.7678 10.7322C32.2366 11.2011 32.5 11.837 32.5 12.5V27.5H47.5C48.163 27.5 48.7989 27.7634 49.2678 28.2322C49.7366 28.7011 50 29.337 50 30C50 30.663 49.7366 31.2989 49.2678 31.7678C48.7989 32.2366 48.163 32.5 47.5 32.5Z" fill="black"/>
</g>
<defs>
<clipPath id="clip0_2_2">
<rect width="60" height="60" rx="30" fill="white"/>
</clipPath>
</defs>
</svg>
