<svg width="86" height="86" viewBox="0 0 86 86" fill="none" xmlns="http://www.w3.org/2000/svg">
<g clip-path="url(#clip0_2_2)">
<path d="M39.4645 4.10913L4.10913 39.4645C3.17145 40.4021 2.64466 41.6739 2.64466 43C2.64466 44.3261 3.17145 45.5979 4.10913 46.5355L39.4645 81.8909C40.4021 82.8286 41.6739 83.3553 43 83.3553C44.3261 83.3553 45.5979 82.8286 46.5355 81.8909L81.8909 46.5355C82.8286 45.5979 83.3553 44.3261 83.3553 43C83.3553 41.6739 82.8286 40.4021 81.8909 39.4645L46.5355 4.10913C45.5979 3.17145 44.3261 2.64466 43 2.64466C41.6739 2.64466 40.4021 3.17145 39.4645 4.10913ZM57.1421 32.3934L46.5355 43L57.1421 53.6066C57.611 54.0754 57.8744 54.7113 57.8744 55.3744C57.8744 56.0374 57.611 56.6733 57.1421 57.1421C56.6733 57.611 56.0374 57.8744 55.3744 57.8744C54.7113 57.8744 54.0754 57.611 53.6066 57.1421L43 46.5355L32.3934 57.1421C31.9246 57.611 31.2887 57.8744 30.6256 57.8744C29.9626 57.8744 29.3267 57.611 28.8579 57.1421C28.389 56.6733 28.1256 56.0374 28.1256 55.3744C28.1256 54.7113 28.389 54.0754 28.8579 53.6066L39.4645 43L28.8579 32.3934C28.389 31.9246 28.1256 31.2887 28.1256 30.6256C28.1256 29.9626 28.389 29.3267 28.8579 28.8579C29.3267 28.389 29.9626 28.1256 30.6256 28.1256C31.2887 28.1256 31.9246 28.389 32.3934 28.8579L43 39.4645L53.6066 28.8579C54.0754 28.389 54.7113 28.1256 55.3744 28.1256C56.0374 28.1256 56.6733 28.389 57.1421 28.8579C57.611 29.3267 57.8744 29.9626 57.8744 30.6256C57.8744 31.2887 57.611 31.9246 57.1421 32.3934Z" fill="black"/>
</g>
<defs>
<clipPath id="clip0_2_2">
<rect x="0.573593" y="43" width="60" height="60" rx="30" transform="rotate(-45 0.573593 43)" fill="white"/>
</clipPath>
</defs>
</svg>
